<svg xmlns="http://www.w3.org/2000/svg" viewBox="0 0 297.17 117.35"><g id="Layer_2" data-name="Layer 2"><path fill="#eee" d="M63.74,114.55l-3.3-1.06c-1.1-.34-2.21-.66-3.34-.95q-2,5.08-4.27,10t-4.78,9.64a76,76,0,0,1-4.32,7.1,74,74,0,0,1-5.06,6.53,64.12,64.12,0,0,1-5.53,5.63,47.16,47.16,0,0,1-5.77,4.46,28.16,28.16,0,0,1-5.77,2.91,16.28,16.28,0,0,1-5.55,1,12.24,12.24,0,0,1-4.86-1.05,13.26,13.26,0,0,1-4.41-3.16,16.41,16.41,0,0,1-3.18-5.26,20.64,20.64,0,0,1-1.22-7.42,27.9,27.9,0,0,1,1.78-9.69,37.72,37.72,0,0,1,2.45-5.31,43.91,43.91,0,0,1,3.67-5.56,35,35,0,0,1,6.46-6.51,37,37,0,0,1,7.61-4.53,39.16,39.16,0,0,1,8.41-2.64,46.43,46.43,0,0,1,8.89-.86,50.66,50.66,0,0,1,5.91.34q2.94.34,5.9,1,2.1-5.39,3.8-10.72t3-10.53Q62.11,80,63,74.16a73.55,73.55,0,0,0,.83-10.09,35.18,35.18,0,0,0-.48-6.24,22.07,22.07,0,0,0-1.22-4.45,10.81,10.81,0,0,0-1.74-3,8.37,8.37,0,0,0-2-1.76,6.45,6.45,0,0,0-2-.83,7.71,7.71,0,0,0-1.72-.22A9.19,9.19,0,0,0,49,49.44a14.73,14.73,0,0,0-4.21,5.23,31,31,0,0,0-2.63,8.16,57.3,57.3,0,0,0-.9,10.59,52.36,52.36,0,0,0,.63,8.42,56.91,56.91,0,0,0,1.58,7,42,42,0,0,0,2.07,5.63q1.13,2.46,2.1,4.12a21.3,21.3,0,0,0,1.78,2.41,3.54,3.54,0,0,1,.49,1l-1.23,1.57a49.36,49.36,0,0,1-4.74-6,43.4,43.4,0,0,1-3.83-7,45.17,45.17,0,0,1-2.57-8,40.62,40.62,0,0,1-.95-8.88,44.66,44.66,0,0,1,1.23-10.43,34.75,34.75,0,0,1,3.55-9.23,20.94,20.94,0,0,1,5.73-6.58A12.73,12.73,0,0,1,54.85,45a12.14,12.14,0,0,1,2.29.25,9,9,0,0,1,2.69,1A12.07,12.07,0,0,1,65,52a24.48,24.48,0,0,1,1.7,5.58,41.81,41.81,0,0,1,.65,7.9c0,1.41,0,2.9-.16,4.48s-.26,3.29-.47,5.12A144.23,144.23,0,0,1,63.38,93,160.5,160.5,0,0,1,58,110.29q1.65.43,3.24.93c1,.32,2.09.67,3.12,1ZM16,157.28a11.84,11.84,0,0,0,6.16-1.42,27.33,27.33,0,0,0,6.44-4.67,56.94,56.94,0,0,0,6.46-7.37,106.87,106.87,0,0,0,6.28-9.45q3.07-5.13,5.89-10.91t5.28-11.85c-1.35-.23-2.68-.41-4-.54s-2.7-.19-4.09-.19A36.52,36.52,0,0,0,33,112.59a39.12,39.12,0,0,0-9.52,4.55,38.73,38.73,0,0,0-7.57,6.51,43.86,43.86,0,0,0-5.49,7.56A36.91,36.91,0,0,0,7.08,139a24.85,24.85,0,0,0-1.14,7,14.43,14.43,0,0,0,.69,4.58,10.6,10.6,0,0,0,2,3.58,8.86,8.86,0,0,0,3.16,2.32A10.3,10.3,0,0,0,16,157.28Z" transform="translate(-1.13 -43.73)" style="stroke:#000;stroke-miterlimit:10;stroke-width:0px"/><path fill="#eee" d="M134.3,64.42c.77.62,0,1.08-1.18,2.08A25.55,25.55,0,0,0,129,71.44q-2.37,3.56-5.47,9t-6.5,12.75l-1.54,3.33c.87-.26,1.75-.5,2.65-.73s1.8-.44,2.73-.64l1.77-.44Q124,91.84,125,90a19.43,19.43,0,0,1,1.93-2.86,5.72,5.72,0,0,1,1.64-1.45,3,3,0,0,1,1.34-.39,2.2,2.2,0,0,1,1.47.64,3,3,0,0,1,.71,2.21,7.2,7.2,0,0,1-2,4.93A10.24,10.24,0,0,1,127.86,95,11.46,11.46,0,0,1,125,96.33c-.51,1.28-1,2.61-1.55,4s-1.08,2.78-1.66,4.18-1.17,2.78-1.77,4.14-1.24,2.63-1.9,3.84l-2.8-3.28,1.08-1.71c.49-.79,1-1.67,1.58-2.65s1.13-2,1.68-3.11,1-2.12,1.42-3.1l.56-1.47c-1.21.32-2.43.66-3.66,1s-2.48.73-3.77,1.15q-3,6.47-6,11.73a50.58,50.58,0,0,1-6.18,9,24.66,24.66,0,0,1-7.19,5.78,19.33,19.33,0,0,1-9,2,20.66,20.66,0,0,1-6.7-1.15,19.5,19.5,0,0,1-6.08-3.35A17.73,17.73,0,0,1,68.66,118a16.28,16.28,0,0,1-.72-12.9,12.28,12.28,0,0,1,2.75-4.16,11.53,11.53,0,0,1,4-2.54,14,14,0,0,1,4.88-.86,14.92,14.92,0,0,1,4.29.64A18.35,18.35,0,0,1,88.07,100a21,21,0,0,1,3.82,2.86,22.78,22.78,0,0,1,3.22,3.8L93.61,108A16.82,16.82,0,0,0,91,105.42a17.55,17.55,0,0,0-3.12-2,16.71,16.71,0,0,0-3.4-1.23,15.17,15.17,0,0,0-3.44-.41,11.22,11.22,0,0,0-3.63.59,8.42,8.42,0,0,0-3.16,1.88A9.75,9.75,0,0,0,72,107.62a12.6,12.6,0,0,0-.87,5,11.61,11.61,0,0,0,1.07,4.94,12.3,12.3,0,0,0,2.91,4,13.68,13.68,0,0,0,4.3,2.67,14.86,14.86,0,0,0,12.47-.86,22.34,22.34,0,0,0,5.9-5,46,46,0,0,0,5.1-7.47q2.39-4.29,4.76-9.13-1.11.44-2.25.93c-.76.33-1.53.67-2.29,1l-.75-2.4c1.21-.49,2.37-1,3.47-1.37l3.32-1.27q2.25-4.65,4.68-9.53t5.32-9.54a83.49,83.49,0,0,1,6.34-8.94,54,54,0,0,1,7-7.16.86.86,0,0,1,1.23.15ZM107.63,91.05a29.83,29.83,0,0,1-7.23,3,27.07,27.07,0,0,1-6.76.93,17.77,17.77,0,0,1-6.71-1.22,15.71,15.71,0,0,1-5.26-3.43A15.36,15.36,0,0,1,78.24,85,18.26,18.26,0,0,1,77,78.22,24.55,24.55,0,0,1,78.3,70,21.12,21.12,0,0,1,87,58.88a32.25,32.25,0,0,1,6.44-3.13A37.56,37.56,0,0,1,100.6,54a51.22,51.22,0,0,1,15.49.1c2.63.42,5.19.89,7.68,1.39s4.91,1,7.25,1.4a38.93,38.93,0,0,0,6.87.63,32,32,0,0,0,7.08-.73,40.72,40.72,0,0,0,5.57-1.64,28.37,28.37,0,0,0,3.65-1.66c.89-.51,1.34-.76,1.37-.76l1,2.25c-.08.06-.59.37-1.54.9a31.28,31.28,0,0,1-3.85,1.77,41.65,41.65,0,0,1-5.79,1.71,33.3,33.3,0,0,1-7.39.76,42.48,42.48,0,0,1-7.23-.61q-3.47-.61-7-1.35T116.4,56.8a52.35,52.35,0,0,0-8.18-.61,38.75,38.75,0,0,0-11.43,1.54,23.05,23.05,0,0,0-8.3,4.41,18.24,18.24,0,0,0-5,7,23.65,23.65,0,0,0-1.7,9.13,15.52,15.52,0,0,0,1.09,6.07A11.92,11.92,0,0,0,90,91.17,14.72,14.72,0,0,0,95,92a20,20,0,0,0,4.42-.49,30.84,30.84,0,0,0,3.76-1.1,24.7,24.7,0,0,0,2.6-1.13c.66-.34,1-.51,1-.51Zm21.89-3.18c-.45,0-1,.51-1.52,1.54a40.62,40.62,0,0,0-1.88,4,8.91,8.91,0,0,0,2-1.23A6.52,6.52,0,0,0,129.28,91a3.82,3.82,0,0,0,.59-1.27,5,5,0,0,0,.16-1.23.49.49,0,0,0-.51-.58Z" transform="translate(-1.13 -43.73)" style="stroke:#000;stroke-miterlimit:10;stroke-width:0px"/><path fill="#eee" d="M133.63,111.22c-.06.39-.09.78-.12,1.17s0,.79,0,1.18a13.54,13.54,0,0,0,.41,3.35,9.1,9.1,0,0,0,1.23,2.79,6,6,0,0,0,2,1.89,5.55,5.55,0,0,0,2.75.68q5.17,0,10-4.36t9.6-13.8l1.34,1.47a60,60,0,0,1-5.29,9.08,35.6,35.6,0,0,1-5.36,6,18.86,18.86,0,0,1-5.23,3.32,13.14,13.14,0,0,1-4.9,1,12,12,0,0,1-3.6-.59,9.76,9.76,0,0,1-3.49-2,10.5,10.5,0,0,1-2.65-3.67,13.84,13.84,0,0,1-1-5.73,24.88,24.88,0,0,1,1-7.08,31.9,31.9,0,0,1,2.63-6.34,31.49,31.49,0,0,1,3.71-5.36,32.1,32.1,0,0,1,4.25-4.13,20.81,20.81,0,0,1,4.21-2.67,8.78,8.78,0,0,1,3.63-1,5.82,5.82,0,0,1,2.09.4,5.23,5.23,0,0,1,1.92,1.22,6,6,0,0,1,1.38,2.2,9,9,0,0,1,.54,3.28,12.38,12.38,0,0,1-1,4.87,16.82,16.82,0,0,1-2.59,4.21,20.76,20.76,0,0,1-3.75,3.48,26.52,26.52,0,0,1-4.47,2.62,28.59,28.59,0,0,1-4.7,1.71A18.66,18.66,0,0,1,133.63,111.22Zm.31-2.11a17.81,17.81,0,0,0,5-1.37,19.93,19.93,0,0,0,4.27-2.52,23.35,23.35,0,0,0,3.46-3.26,22,22,0,0,0,2.54-3.57,18.73,18.73,0,0,0,1.58-3.47,9.61,9.61,0,0,0,.56-3,3.47,3.47,0,0,0-.58-2.11,1.65,1.65,0,0,0-1.36-.78,7,7,0,0,0-3.91,1.54,22.18,22.18,0,0,0-4.35,4.26,39.3,39.3,0,0,0-4.08,6.39A41,41,0,0,0,133.94,109.11Z" transform="translate(-1.13 -43.73)" style="stroke:#000;stroke-miterlimit:10;stroke-width:0px"/><path fill="#eee" d="M188.07,51.15a3.36,3.36,0,0,1,2.31.83,4,4,0,0,1,.93,3,16.12,16.12,0,0,1-.49,3.62,47.56,47.56,0,0,1-1.35,4.58c-.56,1.65-1.23,3.38-2,5.19S185.89,72,185,73.82s-1.8,3.54-2.77,5.23-1.91,3.27-2.86,4.7q-2.85,4.36-4.92,7.35t-3.58,5.06c-1,1.39-1.84,2.52-2.52,3.38s-1.29,1.61-1.82,2.23l-1.46,1.69c-.45.5-.91,1.07-1.39,1.69a19.22,19.22,0,0,0-.29,3.55c0,1.12,0,2.16,0,3.1a14,14,0,0,0,1.1,6.32,3.43,3.43,0,0,0,3.13,2.06,5.07,5.07,0,0,0,2.7-.86,14.86,14.86,0,0,0,2.71-2.23,28.72,28.72,0,0,0,2.61-3.11c.84-1.15,1.63-2.33,2.39-3.52s1.42-2.34,2-3.45,1.13-2.08,1.58-2.89l1.46,1.37c-.08.13-.33.64-.77,1.54s-1,2-1.72,3.26-1.55,2.63-2.52,4.09a34.33,34.33,0,0,1-3.17,4,18.82,18.82,0,0,1-3.57,3.09,6.94,6.94,0,0,1-3.81,1.22,6.71,6.71,0,0,1-3.11-.76,7.09,7.09,0,0,1-2.6-2.4,13.62,13.62,0,0,1-1.82-4.18,23.67,23.67,0,0,1-.69-6.12,54,54,0,0,1,.85-9.33,84.47,84.47,0,0,1,2.31-9.79A99.43,99.43,0,0,1,166,80.42c1.31-3.19,2.72-6.24,4.2-9.13a88.71,88.71,0,0,1,4.67-8,57.7,57.7,0,0,1,4.78-6.39,25.23,25.23,0,0,1,4.52-4.21A7.14,7.14,0,0,1,188.07,51.15Zm-23.66,49.64q3.34-4.31,6.49-8.74t5.89-8.76q2.75-4.33,5-8.42t3.91-7.71a58.38,58.38,0,0,0,2.53-6.61,18.29,18.29,0,0,0,.91-5.14,2.67,2.67,0,0,0-.32-1q-.31-.66-.75-.66c-.82,0-1.9.66-3.24,2a38.51,38.51,0,0,0-4.37,5.46q-2.34,3.45-4.85,8t-4.73,9.84Q168.71,84.3,167,89.87A75.31,75.31,0,0,0,164.41,100.79Z" transform="translate(-1.13 -43.73)" style="stroke:#000;stroke-miterlimit:10;stroke-width:0px"/><path fill="#eee" d="M210.28,51.15a3.36,3.36,0,0,1,2.31.83,4,4,0,0,1,.92,3,16.12,16.12,0,0,1-.49,3.62c-.33,1.4-.78,2.93-1.34,4.58s-1.23,3.38-2,5.19-1.58,3.61-2.47,5.41-1.8,3.54-2.76,5.23-1.92,3.27-2.87,4.7q-2.84,4.36-4.92,7.35t-3.57,5.06c-1,1.39-1.84,2.52-2.53,3.38s-1.29,1.61-1.82,2.23-1,1.18-1.46,1.69-.91,1.07-1.38,1.69a20.18,20.18,0,0,0-.3,3.55c0,1.12,0,2.16,0,3.1a13.82,13.82,0,0,0,1.11,6.32,3.42,3.42,0,0,0,3.12,2.06,5.1,5.1,0,0,0,2.71-.86,14.82,14.82,0,0,0,2.7-2.23,26.6,26.6,0,0,0,2.61-3.11c.84-1.15,1.64-2.33,2.39-3.52s1.43-2.34,2-3.45l1.59-2.89,1.46,1.37c-.08.13-.34.64-.77,1.54s-1,2-1.72,3.26-1.56,2.63-2.53,4.09a35.35,35.35,0,0,1-3.16,4,18.87,18.87,0,0,1-3.58,3.09,6.94,6.94,0,0,1-3.81,1.22,6.67,6.67,0,0,1-3.1-.76,7,7,0,0,1-2.61-2.4,13.62,13.62,0,0,1-1.82-4.18,23.67,23.67,0,0,1-.69-6.12,54,54,0,0,1,.85-9.33,88.79,88.79,0,0,1,2.31-9.79,102.13,102.13,0,0,1,3.44-9.72q2-4.78,4.21-9.13a88.69,88.69,0,0,1,4.66-8,57.7,57.7,0,0,1,4.78-6.39,25.92,25.92,0,0,1,4.52-4.21A7.14,7.14,0,0,1,210.28,51.15Zm-23.67,49.64q3.36-4.31,6.5-8.74T199,83.29q2.75-4.33,5-8.42t3.91-7.71a56.53,56.53,0,0,0,2.53-6.61,17.93,17.93,0,0,0,.91-5.14,2.62,2.62,0,0,0-.31-1c-.22-.44-.47-.66-.76-.66-.81,0-1.89.66-3.23,2a37.82,37.82,0,0,0-4.37,5.46q-2.36,3.45-4.86,8t-4.72,9.84q-2.22,5.25-3.95,10.82A75.37,75.37,0,0,0,186.61,100.79Z" transform="translate(-1.13 -43.73)" style="stroke:#000;stroke-miterlimit:10;stroke-width:0px"/><path fill="#eee" d="M226.16,109.06a.84.84,0,0,0,.31,0h.36a7,7,0,0,0,2-.27,5.13,5.13,0,0,0,1.68-.85,7.6,7.6,0,0,0,1.48-1.55,14.35,14.35,0,0,0,1.39-2.32l1.42,1.37a13.31,13.31,0,0,1-3.91,4.65,7.66,7.66,0,0,1-4.27,1.32,5,5,0,0,1-1.46-.19,32.39,32.39,0,0,1-3.63,6,22.73,22.73,0,0,1-4,4,14.57,14.57,0,0,1-4,2.28,11,11,0,0,1-3.67.71,6.91,6.91,0,0,1-3.22-.76,7.36,7.36,0,0,1-2.55-2.18,10.88,10.88,0,0,1-1.66-3.38,15.31,15.31,0,0,1-.59-4.4,20.82,20.82,0,0,1,.63-5,32.61,32.61,0,0,1,1.72-5,35.29,35.29,0,0,1,2.55-4.82A37.9,37.9,0,0,1,210,94.38a34.73,34.73,0,0,1,3.52-3.63,21.88,21.88,0,0,1,3.63-2.64l1.27,2.06a31.8,31.8,0,0,0-4.25,4.7,42.78,42.78,0,0,0-3.91,6.21,41.74,41.74,0,0,0-2.89,7,23.93,23.93,0,0,0-1.12,7.07,8.69,8.69,0,0,0,1.1,4.78,3.75,3.75,0,0,0,3.36,1.68,7.39,7.39,0,0,0,3.44-.88,14.55,14.55,0,0,0,3.32-2.4,24.9,24.9,0,0,0,3.12-3.59,50.1,50.1,0,0,0,2.84-4.43,7.94,7.94,0,0,1-2-2.23,14.55,14.55,0,0,1-1.46-3.18,21.27,21.27,0,0,1-.89-3.85,29.08,29.08,0,0,1-.3-4.21,18.24,18.24,0,0,1,.44-4.06,13.18,13.18,0,0,1,1.2-3.35,7.17,7.17,0,0,1,1.8-2.28,3.5,3.5,0,0,1,2.25-.83,3.06,3.06,0,0,1,2,.71,5.62,5.62,0,0,1,1.46,2,12.61,12.61,0,0,1,.91,3,20.25,20.25,0,0,1,.31,3.67,27.24,27.24,0,0,1-.2,3.23c-.13,1.18-.32,2.36-.57,3.55s-.55,2.37-.91,3.53A18.54,18.54,0,0,1,226.16,109.06Zm-5.37-12.19A26.62,26.62,0,0,0,221,100a21.45,21.45,0,0,0,.63,3.23,16.25,16.25,0,0,0,1.11,2.91,6.15,6.15,0,0,0,1.66,2.13,28.89,28.89,0,0,0,1.2-3.5q.49-1.78.84-3.45a31,31,0,0,0,.47-3.11c.09-1,.14-1.8.14-2.52a17,17,0,0,0-.2-2.69,11.41,11.41,0,0,0-.53-2.13,4.07,4.07,0,0,0-.83-1.42,1.5,1.5,0,0,0-1.09-.52,2,2,0,0,0-1.46.66,5.59,5.59,0,0,0-1.15,1.77,11.76,11.76,0,0,0-.73,2.54A17.39,17.39,0,0,0,220.79,96.87Z" transform="translate(-1.13 -43.73)" style="stroke:#000;stroke-miterlimit:10;stroke-width:0px"/><path fill="#eee" d="M244.33,89.82q-2.25,4.26-3.83,8.11t-2.61,7.12a50.06,50.06,0,0,0-1.5,6,27,27,0,0,0-.47,4.65c0,3,.69,4.51,2.09,4.51a4.59,4.59,0,0,0,2.9-1.57,23.15,23.15,0,0,0,3.34-4.16,52.41,52.41,0,0,0,3.32-6,64.09,64.09,0,0,0,2.85-7l0,0c.76-2.35,1.6-4.65,2.5-6.9s1.84-4.31,2.79-6.17l1.78,1.37q-.67,2.31-1.62,5.59t-1.8,6.87c-.57,2.4-1.05,4.79-1.46,7.18a38.31,38.31,0,0,0-.61,6.46c0,.55,0,1.08.05,1.59a8,8,0,0,0,.22,1.34,2,2,0,0,0,.59,1l.69.24a5.1,5.1,0,0,0,3-1.47,22.91,22.91,0,0,0,3.44-3.8,50.69,50.69,0,0,0,5.9-10.59A20.48,20.48,0,0,1,264.4,96a21.07,21.07,0,0,1,.38-4.31,12,12,0,0,1,.93-2.86,4,4,0,0,1,1.22-1.57,2.22,2.22,0,0,1,1.23-.46A2.15,2.15,0,0,1,270,88.11a9.43,9.43,0,0,1,.77,4.55,24.7,24.7,0,0,1-.67,5.36,50,50,0,0,1-1.85,6.25,6.6,6.6,0,0,0,1.73,2c.69.52,4.13-1.89,5.06-1.85l-3,5c-.55,1-1.93.06-2.61-.85s-1.49-1.19-2.09-2a50.21,50.21,0,0,1-3,6,34.83,34.83,0,0,1-3.67,5.17,19.14,19.14,0,0,1-4.09,3.62,7.93,7.93,0,0,1-4.31,1.37,3.54,3.54,0,0,1-1.71-.44A4.28,4.28,0,0,1,249,121a6.68,6.68,0,0,1-1-2.25,12.84,12.84,0,0,1-.36-3.23c0-.46,0-1,0-1.47a15.84,15.84,0,0,1,.16-1.62q-1.15,2.2-2.35,4.11a22.78,22.78,0,0,1-2.47,3.28,11.16,11.16,0,0,1-2.63,2.16,5.56,5.56,0,0,1-2.79.78,5.07,5.07,0,0,1-2.64-.66,5.16,5.16,0,0,1-1.82-1.86,9.4,9.4,0,0,1-1.05-2.82,17.55,17.55,0,0,1-.33-3.52,27.81,27.81,0,0,1,.89-6.9,41.88,41.88,0,0,1,2.39-6.91,45.08,45.08,0,0,1,3.45-6.36,41.17,41.17,0,0,1,4.09-5.29Zm22.76,11.46a29.18,29.18,0,0,0,1.14-4.46,24.83,24.83,0,0,0,.4-4.4,9.36,9.36,0,0,0-.2-2.3,2.24,2.24,0,0,0-.31-.79s-.13.09-.3.27a3.7,3.7,0,0,0-.57,1,10.26,10.26,0,0,0-.58,2,18,18,0,0,0-.25,3.35,23.22,23.22,0,0,0,.17,2.79A17.81,17.81,0,0,0,267.09,101.28Z" transform="translate(-1.13 -43.73)" style="stroke:#000;stroke-miterlimit:10;stroke-width:0px"/><path fill="#eee" d="M285.5,84.9a10,10,0,0,0-.61,1.18,8.29,8.29,0,0,0-.73,3.65,12.75,12.75,0,0,0,.41,2.79c.28,1.17.57,2.52.89,4s.61,3.16.89,4.94a35.36,35.36,0,0,1,.41,5.51,27.06,27.06,0,0,1-.9,7.34,19.41,19.41,0,0,1-2.41,5.43,26.38,26.38,0,0,0,6-5.89,62.72,62.72,0,0,0,6-9.77l1.34,1.47a72.44,72.44,0,0,1-3.85,6.88,40.73,40.73,0,0,1-4.72,6.11,23.67,23.67,0,0,1-5.54,4.41,12.41,12.41,0,0,1-6.28,1.69,7.4,7.4,0,0,1-5-1.74,7.92,7.92,0,0,1-2.51-5.21l1.42-.34a3.39,3.39,0,0,0,.22,1,4.44,4.44,0,0,0,.69,1.3,4.29,4.29,0,0,0,1.28,1.12,3.78,3.78,0,0,0,2,.49,4.61,4.61,0,0,0,2.8-.9,8.53,8.53,0,0,0,2.14-2.38,16.72,16.72,0,0,0,1.54-3.35,29.17,29.17,0,0,0,1-3.89c.25-1.34.43-2.65.54-3.92s.15-2.43.15-3.47,0-2.21-.09-3.48-.14-2.49-.22-3.65-.15-2.17-.22-3-.1-1.43-.1-1.69v-.1a17,17,0,0,0-1.22,2c-.48.88-1,1.84-1.52,2.89s-1.08,2.1-1.62,3.18-1,2-1.46,2.94-3.39,3.36-3.67,3.93-.58.23-.58.23l0-.64a37.68,37.68,0,0,0,2.35-3.92c.63-1.37,1.47-3.1,2.51-5.21s2.22-4.44,3.53-7,2.68-5,4.07-7.47L286,84A8.26,8.26,0,0,1,285.5,84.9Z" transform="translate(-1.13 -43.73)" style="stroke:#000;stroke-miterlimit:10;stroke-width:0px"/></g></svg>